<?xml version="1.0" standalone="no"?>
<!DOCTYPE svg PUBLIC "-//W3C//DTD SVG 20010904//EN"
 "http://www.w3.org/TR/2001/REC-SVG-20010904/DTD/svg10.dtd">
<svg version="1.0" xmlns="http://www.w3.org/2000/svg"
 width="894.000000pt" height="1348.000000pt" viewBox="0 0 894.000000 1348.000000"
 preserveAspectRatio="xMidYMid meet">
<metadata>
Created by potrace 1.16, written by Peter Selinger 2001-2019
</metadata>
<g transform="translate(0.000000,1348.000000) scale(0.100000,-0.100000)"
fill="#000000" stroke="none">
<path d="M967 12553 l-966 -928 -1 -2490 0 -2490 843 -843 842 -842 376 0 376
0 -5 -70 c-6 -84 6 -117 58 -164 54 -49 124 -62 260 -48 57 6 106 9 109 7 13
-14 -17 -36 -79 -61 -40 -15 -93 -43 -118 -61 -49 -35 -102 -104 -102 -135 0
-17 -41 -18 -1280 -18 l-1280 0 0 -1274 0 -1274 965 -931 966 -931 2539 0
2539 0 965 928 965 927 0 2385 1 2385 -838 838 -837 837 -708 0 -707 0 -133
81 c-72 45 -159 103 -192 129 -64 51 -173 170 -156 170 5 0 38 -7 73 -14 105
-24 275 -46 428 -55 116 -6 155 -12 195 -30 113 -50 193 -37 271 43 40 41 54
64 64 105 7 29 10 65 6 82 l-5 29 1269 0 1270 0 0 1390 0 1390 -32 34 c-18 19
-452 437 -965 930 l-932 896 -2539 0 -2539 0 -966 -927z m6843 -169 l900 -867
-2 -1221 -3 -1221 -1272 -3 -1273 -2 55 -68 c82 -100 109 -159 103 -228 -4
-47 -10 -61 -40 -91 -47 -46 -110 -55 -181 -24 -36 16 -93 24 -240 36 -281 23
-468 59 -618 119 -34 14 -64 24 -67 22 -10 -11 23 -80 70 -148 123 -175 250
-278 603 -488 77 -46 153 -94 168 -107 l29 -23 561 0 562 0 772 -772 773 -773
0 -2282 0 -2281 -897 -866 -898 -865 -2445 0 -2445 0 -898 867 -897 867 2
1105 3 1105 1258 3 1258 2 -49 48 c-34 33 -52 60 -59 90 -31 121 65 209 272
247 197 37 233 47 295 76 91 43 164 101 216 171 52 72 56 101 14 123 -45 23
-83 18 -152 -20 -174 -95 -411 -154 -621 -155 -88 0 -89 0 -123 34 -21 21 -34
44 -34 60 0 60 93 271 135 306 8 7 15 16 15 21 0 5 -193 9 -437 9 l-438 0
-777 777 -778 778 0 2387 0 2387 900 865 900 866 2440 0 2440 0 900 -866z"/>
<path d="M1288 12222 l-828 -796 0 -2295 0 -2296 708 -708 707 -707 571 0 572
0 93 43 c52 24 134 59 184 78 145 55 185 106 185 239 l0 45 -70 2 c-38 1 -120
11 -182 23 -163 32 -266 31 -347 -3 -36 -15 -83 -27 -107 -27 -35 0 -47 5 -69
32 -24 28 -27 39 -23 84 7 82 58 174 152 272 107 111 171 160 313 235 213 114
476 289 553 367 25 26 58 70 73 98 28 51 48 152 31 152 -5 0 -36 -18 -69 -40
-73 -49 -180 -95 -272 -116 -78 -18 -223 -20 -302 -5 -29 6 -76 11 -103 11
-43 0 -54 4 -84 34 -60 60 -39 127 78 243 80 79 133 111 316 196 146 67 232
124 274 180 32 44 83 145 76 152 -2 2 -24 -9 -48 -26 -127 -85 -200 -107 -412
-120 -245 -15 -319 -46 -441 -181 -72 -81 -114 -108 -169 -108 -101 0 -129
107 -93 353 32 215 92 411 156 512 86 136 157 196 429 360 269 162 338 213
442 330 104 117 148 196 148 267 l0 49 -62 -52 c-81 -68 -117 -83 -272 -114
-114 -23 -148 -26 -305 -23 l-176 2 -78 -32 c-70 -30 -81 -32 -119 -22 -52 14
-93 55 -107 106 -22 84 17 161 142 281 196 187 569 428 968 626 131 65 165 87
209 132 56 60 60 84 18 99 -21 8 -50 2 -134 -24 -103 -32 -111 -33 -258 -31
-183 2 -222 10 -258 51 -37 40 -36 83 0 141 61 94 155 161 362 252 85 37 166
78 179 90 27 25 51 76 51 107 0 21 -3 21 -105 14 -125 -8 -185 8 -210 56 -36
69 -7 141 96 242 121 119 211 178 348 228 l73 27 -93 7 c-148 11 -209 51 -209
136 0 44 75 120 208 212 58 40 133 98 165 128 l59 54 -33 26 c-101 76 -159
145 -159 190 0 57 65 110 134 110 14 0 32 3 41 6 29 12 65 102 105 267 57 231
57 231 85 257 28 26 117 41 130 20 4 -6 22 -81 40 -166 63 -290 73 -309 160
-316 74 -6 115 -43 115 -102 0 -49 -18 -79 -87 -140 -32 -29 -50 -52 -47 -61
7 -16 64 -35 109 -35 52 -1 113 -35 132 -74 14 -30 15 -41 4 -76 -12 -41 -72
-111 -140 -162 l-34 -26 22 -36 c25 -39 91 -98 193 -169 155 -109 196 -219
110 -299 -32 -30 -71 -52 -79 -44 -3 3 -11 -2 -18 -11 -10 -14 0 -24 76 -75
48 -32 123 -93 166 -136 120 -117 150 -199 97 -261 -36 -43 -86 -54 -205 -45
l-99 7 0 -28 c0 -37 27 -91 55 -109 13 -9 86 -43 162 -77 188 -83 299 -142
354 -186 122 -101 149 -203 71 -275 -64 -60 -143 -74 -292 -52 -111 17 -273
15 -290 -2 -14 -14 60 -53 190 -99 167 -59 445 -216 586 -331 l41 -34 1282 0
1281 0 0 1063 0 1062 -828 797 -827 797 -2355 0 -2355 0 -827 -797z"/>
<path d="M4442 12525 c-6 -22 -18 -69 -26 -105 -26 -114 -64 -224 -96 -273
-33 -53 -91 -86 -148 -87 -28 0 -31 -2 -21 -17 6 -10 45 -44 86 -76 88 -69
101 -91 85 -146 -16 -51 -125 -154 -257 -243 -139 -93 -173 -123 -158 -139 7
-7 58 -16 120 -20 168 -14 238 -60 202 -134 -18 -39 -65 -69 -147 -96 -37 -12
-96 -37 -132 -55 -76 -40 -218 -157 -255 -211 -44 -65 -41 -67 101 -60 l126 7
34 -34 c32 -32 34 -39 34 -97 -1 -135 -56 -193 -275 -288 -81 -35 -173 -81
-205 -103 -56 -37 -130 -109 -130 -127 0 -10 121 -21 226 -21 55 0 98 8 171
31 54 18 117 32 140 31 101 -1 163 -50 163 -129 0 -63 -22 -104 -95 -172 -51
-47 -96 -75 -232 -141 -374 -184 -780 -448 -949 -618 -86 -85 -114 -153 -79
-182 13 -11 27 -8 83 13 105 42 171 51 269 37 191 -27 467 39 549 132 29 32
105 78 131 78 16 0 30 -13 50 -47 24 -42 28 -58 28 -128 0 -73 -3 -87 -38
-157 -50 -100 -204 -271 -315 -351 -44 -32 -169 -112 -278 -178 -109 -66 -222
-138 -252 -161 -104 -80 -176 -191 -226 -348 -52 -161 -98 -460 -78 -510 10
-24 12 -23 102 73 74 78 107 104 164 132 85 42 184 64 286 65 172 1 282 27
379 90 92 60 137 80 175 80 127 0 85 -230 -70 -385 -60 -60 -85 -75 -278 -170
-203 -100 -215 -107 -284 -179 -40 -40 -72 -79 -72 -86 0 -6 5 -8 10 -5 6 4
59 -1 118 -10 170 -27 320 -1 457 80 112 66 164 87 193 80 140 -34 108 -267
-58 -435 -80 -81 -477 -343 -576 -380 -57 -22 -194 -122 -267 -195 -51 -52
-86 -98 -112 -150 -21 -41 -36 -77 -34 -79 2 -2 31 7 64 22 87 37 214 42 366
12 120 -24 226 -29 295 -16 37 7 43 6 62 -19 25 -31 27 -72 12 -202 -10 -92
-32 -143 -82 -189 -39 -38 -58 -47 -204 -107 -134 -55 -354 -164 -441 -219
-34 -22 -81 -60 -103 -86 -41 -46 -114 -182 -126 -235 -6 -26 -4 -27 29 -27
71 0 267 31 353 55 49 14 141 51 204 83 98 48 122 57 170 57 64 0 143 -35 173
-76 35 -48 33 -99 -4 -170 -89 -166 -290 -295 -514 -329 -154 -23 -253 -56
-284 -94 -23 -28 -3 -61 74 -124 92 -76 135 -144 135 -215 0 -90 -38 -131
-190 -207 -178 -89 -305 -188 -369 -289 -33 -51 -106 -240 -152 -395 -50 -168
-40 -296 25 -296 15 0 48 25 98 74 97 94 254 198 438 290 199 99 306 132 445
141 227 14 365 44 464 102 24 14 86 65 138 113 130 123 207 156 254 109 20
-20 20 -23 16 -892 -4 -935 -6 -965 -58 -1126 -36 -114 -66 -159 -162 -250
-320 -301 -319 -301 -487 -557 -110 -168 -234 -308 -332 -374 l-60 -40 1443 0
1444 0 -84 45 c-117 63 -164 100 -253 198 -91 100 -164 156 -308 241 -287 167
-435 412 -469 777 -15 156 -15 1350 0 1404 31 113 107 115 259 5 106 -76 144
-81 545 -72 96 3 136 -1 200 -17 117 -31 313 -132 535 -277 232 -152 291 -184
336 -184 49 0 59 31 45 130 -20 148 -135 491 -196 585 -57 88 -185 194 -314
259 -76 39 -137 106 -156 170 -9 29 -14 59 -11 67 2 8 7 26 10 42 4 15 29 53
57 83 54 60 88 123 89 163 0 34 -57 83 -121 103 -30 10 -99 24 -154 33 -128
21 -232 56 -319 107 -131 77 -256 230 -256 312 0 75 55 136 140 156 68 16 120
7 196 -36 149 -83 322 -132 503 -141 120 -6 124 -6 117 13 -4 10 -17 43 -28
72 -30 79 -96 170 -164 225 -64 53 -312 180 -483 247 -146 58 -173 73 -220
126 -50 58 -65 104 -65 214 0 94 18 145 57 159 31 12 61 -2 124 -58 111 -99
203 -131 376 -131 127 0 165 -10 247 -65 36 -24 76 -46 89 -50 23 -7 24 -6 17
33 -19 119 -114 329 -200 441 -82 106 -161 167 -330 255 -215 113 -485 293
-577 387 -61 61 -129 183 -129 229 0 15 10 36 25 50 21 20 31 22 75 17 28 -3
88 -22 133 -41 187 -80 233 -87 401 -56 123 22 176 21 251 -4 41 -14 75 -11
75 8 0 41 -102 139 -230 221 -36 23 -149 83 -252 133 -167 81 -195 98 -250
154 -128 128 -188 299 -128 363 30 33 64 50 110 59 39 6 80 -7 377 -122 100
-39 223 -83 274 -97 52 -15 126 -44 167 -65 91 -48 169 -68 202 -50 21 11 22
16 16 80 -9 103 -70 330 -110 414 -27 56 -57 96 -123 163 -76 77 -111 104
-253 188 -91 53 -210 127 -265 163 -161 106 -354 312 -422 451 -38 77 -40 177
-4 215 33 35 53 33 152 -13 151 -71 349 -111 638 -131 155 -10 213 -20 264
-47 33 -17 64 -10 72 17 21 65 -160 283 -385 463 -163 131 -421 280 -574 332
-201 68 -286 131 -286 213 0 46 26 66 121 92 70 19 99 22 174 17 50 -4 114
-11 144 -18 76 -16 168 -6 195 21 l21 21 -21 37 c-33 57 -141 124 -347 214
-249 109 -304 157 -322 280 -9 60 21 133 61 148 16 7 72 8 145 4 104 -6 119
-5 119 9 0 48 -188 219 -309 280 -35 18 -73 45 -84 59 -17 23 -18 31 -8 56 16
39 43 63 116 104 33 19 61 41 63 50 5 24 -49 80 -130 134 -98 65 -212 180
-228 228 -22 67 -7 99 71 161 62 50 108 101 98 108 -2 2 -34 8 -70 14 -133 22
-184 67 -176 158 4 46 9 54 67 108 35 31 61 59 58 62 -2 3 -26 9 -53 14 -101
19 -141 78 -189 281 -33 143 -34 145 -44 105z"/>
<path d="M6271 7765 c60 -153 117 -424 105 -491 -4 -19 -20 -50 -37 -68 -60
-69 -177 -66 -322 8 -45 24 -136 60 -202 80 -66 21 -218 76 -338 124 -184 72
-222 84 -245 76 -38 -13 -38 -40 -2 -108 67 -129 133 -182 339 -276 152 -69
226 -112 331 -191 198 -150 245 -289 118 -355 -35 -18 -106 -18 -151 1 -45 19
-112 19 -197 0 -79 -17 -214 -19 -278 -4 -26 7 -89 29 -141 51 -51 22 -95 38
-97 36 -8 -9 68 -109 108 -141 118 -95 376 -259 547 -347 252 -129 408 -313
509 -601 76 -216 59 -309 -58 -309 -51 0 -105 22 -177 72 -50 35 -51 35 -194
41 -195 8 -292 40 -406 133 l-33 27 0 -47 c0 -94 40 -143 156 -191 187 -78
363 -158 451 -206 180 -99 297 -245 348 -434 20 -73 11 -105 -37 -136 -30 -19
-43 -20 -158 -15 -204 10 -374 54 -546 142 -104 53 -151 58 -190 19 l-25 -25
23 -43 c13 -23 51 -70 85 -104 75 -75 195 -137 305 -158 40 -7 111 -21 158
-29 105 -20 204 -67 244 -119 25 -31 31 -49 34 -102 5 -79 -22 -144 -97 -228
-28 -33 -51 -68 -51 -80 0 -42 45 -91 126 -136 183 -101 310 -222 374 -356 47
-97 142 -380 164 -487 21 -104 21 -204 -2 -248 -9 -19 -33 -45 -52 -58 -79
-53 -182 -14 -490 188 -392 257 -487 290 -781 270 -262 -19 -374 6 -524 114
-27 20 -53 36 -57 36 -13 0 -9 -1313 3 -1415 22 -181 84 -337 179 -456 67 -84
120 -127 260 -209 137 -82 183 -119 315 -253 135 -138 258 -207 472 -264 95
-26 107 -27 394 -27 l296 -1 827 795 826 794 0 2191 0 2190 -702 702 -703 703
-416 0 -417 0 29 -75z"/>
<path d="M467 3943 c-4 -3 -7 -428 -7 -943 0 -734 3 -940 13 -952 6 -8 380
-369 829 -802 l818 -786 258 0 c288 0 392 10 502 46 100 33 181 88 272 182 82
85 126 145 243 331 87 138 185 246 382 424 108 96 128 119 158 181 81 167 97
391 93 1315 l-3 653 -109 -101 c-121 -113 -198 -158 -328 -190 -86 -22 -238
-41 -326 -41 -120 0 -305 -68 -522 -192 -144 -83 -246 -158 -318 -233 -94
-100 -180 -112 -253 -35 -90 95 -78 251 47 590 61 169 95 230 169 308 77 82
156 141 273 204 l87 48 -1136 0 c-625 0 -1139 -3 -1142 -7z"/>
</g>
</svg>
