<?xml version="1.0" encoding="utf-8" standalone="no"?>
<!DOCTYPE svg PUBLIC "-//W3C//DTD SVG 1.1//EN"
  "http://www.w3.org/Graphics/SVG/1.1/DTD/svg11.dtd">
<svg xmlns:xlink="http://www.w3.org/1999/xlink" width="604.8pt" height="201.6pt" viewBox="0 0 604.8 201.6" xmlns="http://www.w3.org/2000/svg" version="1.1">
 <metadata>
  <rdf:RDF xmlns:dc="http://purl.org/dc/elements/1.1/" xmlns:cc="http://creativecommons.org/ns#" xmlns:rdf="http://www.w3.org/1999/02/22-rdf-syntax-ns#">
   <cc:Work>
    <dc:type rdf:resource="http://purl.org/dc/dcmitype/StillImage"/>
    <dc:date>2026-04-23T00:44:03.692868</dc:date>
    <dc:format>image/svg+xml</dc:format>
    <dc:creator>
     <cc:Agent>
      <dc:title>Matplotlib v3.10.8, https://matplotlib.org/</dc:title>
     </cc:Agent>
    </dc:creator>
   </cc:Work>
  </rdf:RDF>
 </metadata>
 <defs>
  <style type="text/css">*{stroke-linejoin: round; stroke-linecap: butt}</style>
 </defs>
 <g id="figure_1">
  <g id="patch_1">
   <path d="M 0 201.6 
L 604.8 201.6 
L 604.8 0 
L 0 0 
z
" style="fill: #faf7f0"/>
  </g>
  <g id="axes_1">
   <g id="patch_2">
    <path d="M 3.024 157.248 
L 192.502481 157.248 
L 192.502481 14.112 
L 3.024 14.112 
z
" style="fill: #faf7f0"/>
   </g>
   <g id="matplotlib.axis_1"/>
   <g id="matplotlib.axis_2"/>
   <g id="patch_3">
    <path d="M 3.024 157.248 
L 192.502481 157.248 
" style="fill: none; stroke: #e6d7bd; stroke-width: 0.6; stroke-linejoin: miter; stroke-linecap: square"/>
   </g>
   <g id="patch_4">
    <path d="M 18.915744 157.248 
L 54.366556 157.248 
L 54.366556 57.78061 
L 18.915744 57.78061 
z
" clip-path="url(#p3470d11182)" style="fill: #d3c09d"/>
   </g>
   <g id="text_1">
    <text style="font-size: 13px; font-family: 'Helvetica Neue', 'Arial', 'DejaVu Sans', sans-serif; text-anchor: middle; fill: #2a2218" x="36.64115" y="52.307963" transform="rotate(-0 36.64115 52.307963)">82</text>
   </g>
   <g id="patch_5">
    <path d="M 80.037834 157.248 
L 115.488647 157.248 
L 115.488647 106.301288 
L 80.037834 106.301288 
z
" clip-path="url(#p3470d11182)" style="fill: #9a8560"/>
   </g>
   <g id="text_2">
    <text style="font-size: 13px; font-family: 'Helvetica Neue', 'Arial', 'DejaVu Sans', sans-serif; text-anchor: middle; fill: #2a2218" x="97.763241" y="100.828641" transform="rotate(-0 97.763241 100.828641)">42</text>
   </g>
   <g id="patch_6">
    <path d="M 141.159925 157.248 
L 176.610737 157.248 
L 176.610737 61.419661 
L 141.159925 61.419661 
z
" clip-path="url(#p3470d11182)" style="fill: #b5552a"/>
   </g>
   <g id="text_3">
    <text style="font-weight: 700; font-size: 13px; font-family: 'Helvetica Neue', 'Arial', 'DejaVu Sans', sans-serif; text-anchor: middle; fill: #2a2218" x="158.885331" y="55.947014" transform="rotate(-0 158.885331 55.947014)">79</text>
   </g>
  </g>
  <g id="axes_2">
   <g id="patch_7">
    <path d="M 207.660759 157.248 
L 397.139241 157.248 
L 397.139241 14.112 
L 207.660759 14.112 
z
" style="fill: #faf7f0"/>
   </g>
   <g id="matplotlib.axis_3"/>
   <g id="matplotlib.axis_4"/>
   <g id="patch_8">
    <path d="M 207.660759 157.248 
L 397.139241 157.248 
" style="fill: none; stroke: #e6d7bd; stroke-width: 0.6; stroke-linejoin: miter; stroke-linecap: square"/>
   </g>
   <g id="patch_9">
    <path d="M 223.552503 157.248 
L 259.003316 157.248 
L 259.003316 145.117831 
L 223.552503 145.117831 
z
" clip-path="url(#p8f234e8eeb)" style="fill: #d3c09d"/>
   </g>
   <g id="text_4">
    <text style="font-size: 13px; font-family: 'Helvetica Neue', 'Arial', 'DejaVu Sans', sans-serif; text-anchor: middle; fill: #2a2218" x="241.277909" y="139.645184" transform="rotate(-0 241.277909 139.645184)">10</text>
   </g>
   <g id="patch_10">
    <path d="M 284.674594 157.248 
L 320.125406 157.248 
L 320.125406 81.434441 
L 284.674594 81.434441 
z
" clip-path="url(#p8f234e8eeb)" style="fill: #9a8560"/>
   </g>
   <g id="text_5">
    <text style="font-size: 13px; font-family: 'Helvetica Neue', 'Arial', 'DejaVu Sans', sans-serif; text-anchor: middle; fill: #2a2218" x="302.4" y="75.961794" transform="rotate(-0 302.4 75.961794)">62.5</text>
   </g>
   <g id="patch_11">
    <path d="M 345.796684 157.248 
L 381.247497 157.248 
L 381.247497 54.141559 
L 345.796684 54.141559 
z
" clip-path="url(#p8f234e8eeb)" style="fill: #b5552a"/>
   </g>
   <g id="text_6">
    <text style="font-weight: 700; font-size: 13px; font-family: 'Helvetica Neue', 'Arial', 'DejaVu Sans', sans-serif; text-anchor: middle; fill: #2a2218" x="363.522091" y="48.668912" transform="rotate(-0 363.522091 48.668912)">85</text>
   </g>
  </g>
  <g id="axes_3">
   <g id="patch_12">
    <path d="M 412.297519 157.248 
L 601.776 157.248 
L 601.776 14.112 
L 412.297519 14.112 
z
" style="fill: #faf7f0"/>
   </g>
   <g id="matplotlib.axis_5"/>
   <g id="matplotlib.axis_6"/>
   <g id="patch_13">
    <path d="M 412.297519 157.248 
L 601.776 157.248 
" style="fill: none; stroke: #e6d7bd; stroke-width: 0.6; stroke-linejoin: miter; stroke-linecap: square"/>
   </g>
   <g id="patch_14">
    <path d="M 428.189263 157.248 
L 463.640075 157.248 
L 463.640075 151.182915 
L 428.189263 151.182915 
z
" clip-path="url(#p1c13207e38)" style="fill: #d3c09d"/>
   </g>
   <g id="text_7">
    <text style="font-size: 13px; font-family: 'Helvetica Neue', 'Arial', 'DejaVu Sans', sans-serif; text-anchor: middle; fill: #2a2218" x="445.914669" y="145.710268" transform="rotate(-0 445.914669 145.710268)">5</text>
   </g>
   <g id="patch_15">
    <path d="M 489.311353 157.248 
L 524.762166 157.248 
L 524.762166 132.987661 
L 489.311353 132.987661 
z
" clip-path="url(#p1c13207e38)" style="fill: #9a8560"/>
   </g>
   <g id="text_8">
    <text style="font-size: 13px; font-family: 'Helvetica Neue', 'Arial', 'DejaVu Sans', sans-serif; text-anchor: middle; fill: #2a2218" x="507.036759" y="127.515014" transform="rotate(-0 507.036759 127.515014)">20</text>
   </g>
   <g id="patch_16">
    <path d="M 550.433444 157.248 
L 585.884256 157.248 
L 585.884256 42.01139 
L 550.433444 42.01139 
z
" clip-path="url(#p1c13207e38)" style="fill: #b5552a"/>
   </g>
   <g id="text_9">
    <text style="font-weight: 700; font-size: 13px; font-family: 'Helvetica Neue', 'Arial', 'DejaVu Sans', sans-serif; text-anchor: middle; fill: #2a2218" x="568.15885" y="36.538743" transform="rotate(-0 568.15885 36.538743)">95</text>
   </g>
  </g>
  <g id="legend_1">
   <g id="patch_17">
    <path d="M 131.716094 189.977812 
L 147.116094 189.977812 
L 147.116094 181.205312 
L 131.716094 181.205312 
z
" style="fill: #d3c09d"/>
   </g>
   <g id="text_10">
    <text style="font-size: 11px; font-family: 'Helvetica Neue', 'Arial', 'DejaVu Sans', sans-serif; text-anchor: start; fill: #2a2218" x="152.616094" y="189.400312" transform="rotate(-0 152.616094 189.400312)">No-history Policy</text>
   </g>
   <g id="patch_18">
    <path d="M 258.944844 189.977812 
L 274.344844 189.977812 
L 274.344844 181.205312 
L 258.944844 181.205312 
z
" style="fill: #9a8560"/>
   </g>
   <g id="text_11">
    <text style="font-size: 11px; font-family: 'Helvetica Neue', 'Arial', 'DejaVu Sans', sans-serif; text-anchor: start; fill: #2a2218" x="279.844844" y="189.400312" transform="rotate(-0 279.844844 189.400312)">Long-history Policy</text>
   </g>
   <g id="patch_19">
    <path d="M 396.776563 189.977812 
L 412.176563 189.977812 
L 412.176563 181.205312 
L 396.776563 181.205312 
z
" style="fill: #b5552a"/>
   </g>
   <g id="text_12">
    <text style="font-weight: 700; font-size: 11px; font-family: 'Helvetica Neue', 'Arial', 'DejaVu Sans', sans-serif; text-anchor: start; fill: #b5552a" x="417.676563" y="189.400312" transform="rotate(-0 417.676563 189.400312)">GMP (ours)</text>
   </g>
  </g>
 </g>
 <defs>
  <clipPath id="p3470d11182">
   <rect x="3.024" y="14.112" width="189.478481" height="143.136"/>
  </clipPath>
  <clipPath id="p8f234e8eeb">
   <rect x="207.660759" y="14.112" width="189.478481" height="143.136"/>
  </clipPath>
  <clipPath id="p1c13207e38">
   <rect x="412.297519" y="14.112" width="189.478481" height="143.136"/>
  </clipPath>
 </defs>
</svg>
